<svg width="404" height="78" viewBox="0 0 404 78" fill="none" xmlns="http://www.w3.org/2000/svg">
<path d="M1.71484 30.1194V1.68188H10.9336C13.6549 1.68188 15.7578 2.28084 17.2422 3.47876C18.7266 4.67668 19.4688 6.51912 19.4688 9.0061C19.4688 10.6207 19.1107 11.9553 18.3945 13.01C17.6784 14.0517 16.7734 14.7613 15.6797 15.1389V15.217C17.0469 15.5816 18.1536 16.3499 19 17.5217C19.8594 18.6936 20.2891 20.2366 20.2891 22.1506C20.2891 24.6767 19.4948 26.6363 17.9062 28.0295C16.3177 29.4228 14.1823 30.1194 11.5 30.1194H1.71484ZM5.73828 26.9944H11.168C12.8997 26.9944 14.1693 26.5452 14.9766 25.6467C15.7969 24.7353 16.207 23.5048 16.207 21.9553C16.207 20.3928 15.7969 19.1493 14.9766 18.2249C14.1693 17.3004 12.8997 16.8381 11.168 16.8381H5.73828V26.9944ZM5.73828 13.9475H10.6211C12.3398 13.9475 13.5768 13.5439 14.332 12.7366C15.1003 11.9163 15.4844 10.7769 15.4844 9.3186C15.4844 7.86027 15.1003 6.7535 14.332 5.99829C13.5768 5.23006 12.3398 4.84595 10.6211 4.84595H5.73828V13.9475ZM22.6849 20.842V20.217C22.6849 17.3134 23.4987 14.9631 25.1263 13.1663C26.7669 11.3694 28.9349 10.4709 31.6302 10.4709C34.3125 10.4709 36.3763 11.3108 37.8216 12.9905C39.2669 14.6702 39.9896 16.9814 39.9896 19.9241V21.3303H25.0091V18.635H36.0638V18.3616C36.0638 17.0595 35.7057 15.9332 34.9896 14.9827C34.2734 14.0191 33.1666 13.5374 31.6692 13.5374C30.0026 13.5374 28.7461 14.1493 27.8997 15.3733C27.0664 16.5842 26.6497 18.1402 26.6497 20.0413V20.9006C26.6497 22.8668 27.0989 24.4683 27.9974 25.7053C28.8958 26.9293 30.2239 27.5413 31.9817 27.5413C33.1536 27.5413 34.1497 27.2939 34.97 26.7991C35.8034 26.2913 36.4609 25.6663 36.9427 24.9241L39.8138 26.6428C39.2278 27.7236 38.2773 28.6545 36.9622 29.4358C35.6601 30.217 34.013 30.6077 32.0208 30.6077C29.039 30.6077 26.7344 29.7157 25.1067 27.9319C23.4922 26.148 22.6849 23.7847 22.6849 20.842ZM43.1862 30.1194V10.9983H46.9362L47.0143 13.5959H47.0729C47.75 12.6584 48.5768 11.9228 49.5533 11.3889C50.5429 10.8551 51.6562 10.5881 52.8932 10.5881C54.2213 10.5881 55.3606 10.8681 56.3112 11.428C57.2617 11.9749 57.9453 12.8147 58.3619 13.9475H58.4205C59.1367 12.8277 60.0351 11.9879 61.1158 11.428C62.1966 10.8681 63.4075 10.5881 64.7487 10.5881C66.6237 10.5881 68.1145 11.135 69.2213 12.2288C70.3281 13.3225 70.8815 15.1519 70.8815 17.717V30.1194H66.8971V17.8342C66.8971 16.3499 66.5911 15.3082 65.9791 14.7092C65.3802 14.0972 64.5143 13.7913 63.3815 13.7913C62.3919 13.7913 61.5325 14.0777 60.8033 14.6506C60.0742 15.2236 59.4817 15.9722 59.026 16.8967V30.1194H55.0416V17.8538C55.0416 16.3694 54.7356 15.3212 54.1237 14.7092C53.5117 14.0972 52.6328 13.7913 51.4869 13.7913C50.5104 13.7913 49.6575 14.0777 48.9283 14.6506C48.1992 15.2236 47.6067 15.9722 47.151 16.8967V30.1194H43.1862ZM81.0247 10.9983H84.97L89.4817 23.5178C89.651 23.9866 89.7942 24.4293 89.9114 24.8459C90.0416 25.2626 90.1392 25.5946 90.2043 25.842H90.302C90.3671 25.5946 90.4648 25.2626 90.595 24.8459C90.7252 24.4293 90.8684 23.9866 91.0247 23.5178L95.5559 10.9983H99.3059L91.9817 30.1194H88.3684L81.0247 10.9983ZM101.409 30.1194V10.9983H105.393V30.1194H101.409ZM100.979 4.6311C100.979 3.98006 101.187 3.4397 101.604 3.01001C102.034 2.5673 102.639 2.34595 103.42 2.34595C104.189 2.34595 104.781 2.5673 105.198 3.01001C105.614 3.4397 105.823 3.98006 105.823 4.6311C105.823 5.26912 105.608 5.816 105.178 6.27173C104.762 6.71444 104.169 6.93579 103.401 6.93579C102.62 6.93579 102.021 6.71444 101.604 6.27173C101.187 5.816 100.979 5.26912 100.979 4.6311ZM109.957 30.1194V10.9983H113.726L113.785 13.5374H113.863C114.462 12.6129 115.276 11.8902 116.305 11.3694C117.346 10.8486 118.518 10.5881 119.82 10.5881C121.734 10.5881 123.264 11.1285 124.41 12.2092C125.556 13.29 126.129 15.1129 126.129 17.678V30.1194H122.164V17.9319C122.164 16.4345 121.838 15.3733 121.187 14.7483C120.536 14.1103 119.625 13.7913 118.453 13.7913C117.437 13.7913 116.532 14.0777 115.738 14.6506C114.957 15.2105 114.351 15.9527 113.922 16.8772V30.1194H109.957ZM129.286 20.8616V20.2366C129.286 17.4371 130.009 15.1324 131.454 13.3225C132.913 11.5126 134.853 10.6077 137.275 10.6077C138.642 10.6077 139.807 10.842 140.771 11.3108C141.734 11.7665 142.489 12.3785 143.036 13.1467V0.959229H146.962V30.1194H143.232L143.153 27.5413H143.095C142.587 28.3616 141.825 29.0647 140.81 29.6506C139.807 30.2236 138.629 30.51 137.275 30.51C134.801 30.51 132.847 29.6051 131.415 27.7952C129.996 25.9722 129.286 23.6611 129.286 20.8616ZM133.329 20.8811C133.329 22.7821 133.733 24.3512 134.54 25.5881C135.347 26.8121 136.611 27.4241 138.329 27.4241C139.475 27.4241 140.452 27.1051 141.259 26.467C142.066 25.829 142.646 25.0999 142.997 24.2795V16.7209C142.646 15.9006 142.066 15.191 141.259 14.592C140.465 13.9931 139.488 13.6936 138.329 13.6936C136.611 13.6936 135.347 14.3121 134.54 15.5491C133.733 16.773 133.329 18.329 133.329 20.217V20.8811ZM150.295 20.842V20.217C150.295 17.3134 151.142 14.9631 152.834 13.1663C154.54 11.3694 156.799 10.4709 159.612 10.4709C162.424 10.4709 164.677 11.3694 166.37 13.1663C168.075 14.9631 168.928 17.3134 168.928 20.217V20.842C168.928 23.7717 168.075 26.135 166.37 27.9319C164.677 29.7157 162.424 30.6077 159.612 30.6077C156.786 30.6077 154.527 29.7157 152.834 27.9319C151.142 26.135 150.295 23.7717 150.295 20.842ZM154.338 20.1389V20.9397C154.338 22.8668 154.781 24.4423 155.666 25.6663C156.565 26.8902 157.874 27.5022 159.592 27.5022C161.337 27.5022 162.652 26.8902 163.538 25.6663C164.436 24.4423 164.885 22.8603 164.885 20.9202V20.1389C164.885 18.2118 164.436 16.6428 163.538 15.4319C162.639 14.2209 161.324 13.6155 159.592 13.6155C157.887 13.6155 156.584 14.2209 155.686 15.4319C154.788 16.6428 154.338 18.2118 154.338 20.1389ZM179.501 24.592C179.501 22.6519 180.256 21.135 181.767 20.0413C183.29 18.9345 185.269 18.3811 187.704 18.3811H192.118V16.8967C192.118 15.79 191.832 14.9241 191.259 14.2991C190.686 13.6611 189.722 13.342 188.368 13.342C187.04 13.342 186.051 13.609 185.4 14.1428C184.762 14.6767 184.442 15.3733 184.442 16.2327V16.5452H180.595V16.135C180.595 14.5465 181.311 13.2118 182.743 12.1311C184.176 11.0374 186.109 10.4905 188.544 10.4905C190.953 10.4905 192.808 11.0113 194.11 12.053C195.426 13.0816 196.083 14.7157 196.083 16.9553V25.5491C196.083 26.3694 196.142 27.1506 196.259 27.8928C196.389 28.622 196.584 29.26 196.845 29.8069V30.1194H192.978C192.795 29.7939 192.633 29.3837 192.489 28.8889C192.359 28.3811 192.275 27.8733 192.235 27.3655C191.793 28.1597 191.038 28.8694 189.97 29.4944C188.915 30.1194 187.574 30.4319 185.946 30.4319C184.045 30.4319 182.496 29.9371 181.298 28.9475C180.1 27.9449 179.501 26.4931 179.501 24.592ZM183.446 24.3381C183.446 25.3798 183.752 26.1871 184.364 26.76C184.989 27.3199 185.907 27.5999 187.118 27.5999C188.407 27.5999 189.56 27.1637 190.575 26.2913C191.604 25.4189 192.118 24.4488 192.118 23.3811V20.9397H188.466C186.773 20.9397 185.51 21.2392 184.677 21.8381C183.857 22.4241 183.446 23.2574 183.446 24.3381ZM199.377 20.842V20.217C199.377 17.3134 200.224 14.9631 201.916 13.1663C203.622 11.3694 205.881 10.4709 208.694 10.4709C211.506 10.4709 213.759 11.3694 215.452 13.1663C217.157 14.9631 218.01 17.3134 218.01 20.217V20.842C218.01 23.7717 217.157 26.135 215.452 27.9319C213.759 29.7157 211.506 30.6077 208.694 30.6077C205.868 30.6077 203.609 29.7157 201.916 27.9319C200.224 26.135 199.377 23.7717 199.377 20.842ZM203.42 20.1389V20.9397C203.42 22.8668 203.863 24.4423 204.748 25.6663C205.647 26.8902 206.955 27.5022 208.674 27.5022C210.419 27.5022 211.734 26.8902 212.62 25.6663C213.518 24.4423 213.967 22.8603 213.967 20.9202V20.1389C213.967 18.2118 213.518 16.6428 212.62 15.4319C211.721 14.2209 210.406 13.6155 208.674 13.6155C206.969 13.6155 205.666 14.2209 204.768 15.4319C203.87 16.6428 203.42 18.2118 203.42 20.1389Z" fill="#242424"/>
<path d="M5.72 49.5194V74.9594L9.56 76.3994V77.1194H0.44V76.3994L4.28 74.9594V44.9594L1.4 44.2394V43.5194H7.4C9.064 43.5194 10.376 43.8714 11.336 44.5754C12.328 45.2474 13.176 46.2554 13.88 47.5994L24.344 67.6154L32.36 47.5994C32.904 46.1914 33.64 45.1674 34.568 44.5274C35.496 43.8554 36.92 43.5194 38.84 43.5194H43.88V44.2394L41 44.9594V75.6794L43.88 76.3994V77.1194H30.2V76.3994L33.08 75.6794V49.5194L21.8 77.5994H20.36L5.72 49.5194ZM47.8588 76.3994L50.7388 75.6794V54.5594L47.8588 53.8394V53.1194H54.0988C56.9788 53.1194 58.4188 54.5594 58.4188 57.4394V75.6794L61.2988 76.3994V77.1194H47.8588V76.3994ZM54.0988 50.2394C53.1388 50.2394 52.3388 49.9194 51.6988 49.2794C51.0588 48.6394 50.7388 47.8394 50.7388 46.8794C50.7388 45.9194 51.0588 45.1194 51.6988 44.4794C52.3388 43.8394 53.1388 43.5194 54.0988 43.5194C55.0588 43.5194 55.8588 43.8394 56.4988 44.4794C57.1388 45.1194 57.4588 45.9194 57.4588 46.8794C57.4588 47.8394 57.1388 48.6394 56.4988 49.2794C55.8588 49.9194 55.0588 50.2394 54.0988 50.2394ZM63.8132 76.3994L66.6932 75.6794V54.5594L63.8132 53.8394V53.1194H68.1332C70.0212 53.1194 71.5092 53.7274 72.5972 54.9434C73.0132 55.4234 73.3652 56.0154 73.6532 56.7194C74.1332 55.8234 74.6452 55.1034 75.1892 54.5594C76.6292 53.1194 78.2772 52.3994 80.1332 52.3994C81.9892 52.3994 83.6212 52.8154 85.0292 53.6474C86.4372 54.4474 87.5252 55.5514 88.2932 56.9594C88.7732 56.0314 89.2852 55.2794 89.8292 54.7034C91.3012 53.1674 92.9492 52.3994 94.7732 52.3994C96.4692 52.3994 97.9892 52.7514 99.3332 53.4554C100.709 54.1594 101.765 55.1194 102.501 56.3354C103.269 57.5514 103.653 58.8794 103.653 60.3194V75.6794L106.533 76.3994V77.1194H100.293C97.4132 77.1194 95.9732 75.6794 95.9732 72.7994V60.3194C95.9732 58.2394 95.6532 56.6874 95.0132 55.6634C94.3732 54.6074 93.6532 54.0794 92.8532 54.0794C91.9252 54.0794 90.9812 54.7194 90.0212 55.9994C89.6372 56.6074 89.3012 57.2474 89.0132 57.9194V75.6794L91.8932 76.3994V77.1194H78.4532V76.3994L81.3332 75.6794V60.3194C81.3332 58.2394 81.0132 56.6874 80.3732 55.6634C79.7332 54.6074 79.0132 54.0794 78.2132 54.0794C77.2852 54.0794 76.3412 54.7194 75.3812 55.9994C74.9972 56.6074 74.6612 57.2474 74.3732 57.9194V75.6794L77.2532 76.3994V77.1194H63.8132V76.3994ZM121.784 77.8394C117.816 77.8394 114.696 76.7194 112.424 74.4794C110.184 72.2074 109.064 69.0874 109.064 65.1194C109.064 61.1514 110.184 58.0474 112.424 55.8074C114.696 53.5354 117.816 52.3994 121.784 52.3994C125.752 52.3994 128.856 53.5354 131.096 55.8074C133.368 58.0474 134.504 61.1514 134.504 65.1194C134.504 69.0874 133.368 72.2074 131.096 74.4794C128.856 76.7194 125.752 77.8394 121.784 77.8394ZM121.784 76.8794C123.064 76.8794 124.136 75.9834 125 74.1914C125.896 72.3994 126.344 69.3754 126.344 65.1194C126.344 60.8634 125.896 57.8394 125 56.0474C124.136 54.2554 123.064 53.3594 121.784 53.3594C120.504 53.3594 119.416 54.2554 118.52 56.0474C117.656 57.8394 117.224 60.8634 117.224 65.1194C117.224 69.3754 117.656 72.3994 118.52 74.1914C119.416 75.9834 120.504 76.8794 121.784 76.8794ZM155.898 49.5194V74.9594L159.738 76.3994V77.1194H150.618V76.3994L154.458 74.9594V44.9594L151.578 44.2394V43.5194H157.578C159.242 43.5194 160.554 43.8714 161.514 44.5754C162.506 45.2474 163.354 46.2554 164.058 47.5994L174.522 67.6154L182.538 47.5994C183.082 46.1914 183.818 45.1674 184.746 44.5274C185.674 43.8554 187.098 43.5194 189.018 43.5194H194.058V44.2394L191.178 44.9594V75.6794L194.058 76.3994V77.1194H180.378V76.3994L183.258 75.6794V49.5194L171.978 77.5994H170.538L155.898 49.5194ZM210.997 77.8394C206.901 77.8394 203.717 76.7194 201.445 74.4794C199.173 72.2074 198.037 69.0874 198.037 65.1194C198.037 62.5274 198.533 60.2714 199.525 58.3514C200.517 56.4314 201.893 54.9594 203.653 53.9354C205.445 52.9114 207.493 52.3994 209.797 52.3994C212.101 52.3994 214.117 52.8314 215.845 53.6954C217.605 54.5594 218.949 55.7274 219.877 57.1994C220.837 58.6394 221.317 60.2394 221.317 61.9994C221.317 62.7994 221.237 63.4874 221.077 64.0634L220.837 64.8794C219.461 65.1674 217.973 65.4074 216.373 65.5994C213.013 66.0794 209.621 66.3194 206.197 66.3194C206.197 70.0314 206.709 72.6874 207.733 74.2874C208.757 75.8554 210.165 76.6394 211.957 76.6394C213.205 76.6394 214.357 76.3514 215.413 75.7754C216.501 75.1674 217.349 74.3834 217.957 73.4234C218.597 72.4314 218.917 71.4234 218.917 70.3994H220.117C220.117 71.6794 219.733 72.8954 218.965 74.0474C218.197 75.1994 217.125 76.1274 215.749 76.8314C214.373 77.5034 212.789 77.8394 210.997 77.8394ZM206.197 65.1194C208.245 65.1194 209.909 65.0394 211.189 64.8794C211.733 64.8474 212.309 64.7674 212.917 64.6394C212.949 64.4794 213.029 64.1274 213.157 63.5834C213.317 62.7834 213.397 61.9354 213.397 61.0394C213.397 58.3834 213.045 56.4474 212.341 55.2314C211.637 53.9834 210.789 53.3594 209.797 53.3594C207.397 53.3594 206.197 57.2794 206.197 65.1194ZM236.058 77.8394C234.266 77.8394 232.65 77.4714 231.21 76.7354C229.802 75.9674 228.698 74.9754 227.898 73.7594C227.098 72.5434 226.698 71.2634 226.698 69.9194V54.5594L223.818 53.8394V53.1194H230.058C232.938 53.1194 234.378 54.5594 234.378 57.4394V69.9194C234.378 71.9354 234.73 73.4874 235.434 74.5754C236.17 75.6314 237.018 76.1594 237.978 76.1594C239.162 76.1594 240.234 75.5194 241.194 74.2394C241.546 73.7594 241.914 73.1194 242.298 72.3194V54.5594L239.418 53.8394V53.1194H252.858V53.8394L249.978 54.5594V77.3594H249.498C247.162 77.3594 245.386 76.7194 244.17 75.4394C243.626 74.8634 243.242 74.2234 243.018 73.5194C242.57 74.3194 242.042 75.0394 241.434 75.6794C239.994 77.1194 238.202 77.8394 236.058 77.8394ZM281.454 77.8394C277.358 77.8394 274.174 76.7194 271.902 74.4794C269.63 72.2074 268.494 69.0874 268.494 65.1194C268.494 62.5274 268.99 60.2714 269.982 58.3514C270.974 56.4314 272.35 54.9594 274.11 53.9354C275.902 52.9114 277.95 52.3994 280.254 52.3994C282.558 52.3994 284.574 52.8314 286.302 53.6954C288.062 54.5594 289.406 55.7274 290.334 57.1994C291.294 58.6394 291.774 60.2394 291.774 61.9994C291.774 62.7994 291.694 63.4874 291.534 64.0634L291.294 64.8794C289.918 65.1674 288.43 65.4074 286.83 65.5994C283.47 66.0794 280.078 66.3194 276.654 66.3194C276.654 70.0314 277.166 72.6874 278.19 74.2874C279.214 75.8554 280.622 76.6394 282.414 76.6394C283.662 76.6394 284.814 76.3514 285.87 75.7754C286.958 75.1674 287.806 74.3834 288.414 73.4234C289.054 72.4314 289.374 71.4234 289.374 70.3994H290.574C290.574 71.6794 290.19 72.8954 289.422 74.0474C288.654 75.1994 287.582 76.1274 286.206 76.8314C284.83 77.5034 283.246 77.8394 281.454 77.8394ZM276.654 65.1194C278.702 65.1194 280.366 65.0394 281.646 64.8794C282.19 64.8474 282.766 64.7674 283.374 64.6394C283.406 64.4794 283.486 64.1274 283.614 63.5834C283.774 62.7834 283.854 61.9354 283.854 61.0394C283.854 58.3834 283.502 56.4474 282.798 55.2314C282.094 53.9834 281.246 53.3594 280.254 53.3594C277.854 53.3594 276.654 57.2794 276.654 65.1194ZM320.33 77.8394C318.058 77.8394 315.93 77.3274 313.946 76.3034C313.05 75.8554 312.298 75.3274 311.69 74.7194C311.242 75.4554 310.682 76.1114 310.01 76.6874C309.434 77.1034 309.114 77.3274 309.05 77.3594H307.85V68.2394H309.77C310.25 69.8074 310.922 71.2154 311.786 72.4634C313.738 75.2474 316.266 76.6394 319.37 76.6394C321.194 76.6394 322.65 76.0954 323.738 75.0074C324.826 73.9194 325.37 72.4634 325.37 70.6394C325.37 69.5834 325.05 68.6394 324.41 67.8074C323.802 66.9754 323.034 66.2394 322.106 65.5994C321.178 64.9594 319.882 64.1594 318.218 63.1994C316.106 62.0154 314.394 60.9434 313.082 59.9834C311.77 59.0234 310.65 57.8234 309.722 56.3834C308.794 54.9114 308.33 53.1834 308.33 51.1994C308.33 49.6314 308.762 48.2234 309.626 46.9754C310.522 45.6954 311.85 44.6874 313.61 43.9514C315.37 43.1834 317.53 42.7994 320.09 42.7994C321.946 42.7994 323.802 43.3274 325.658 44.3834C326.362 44.7674 327.066 45.2794 327.77 45.9194C328.314 45.0874 328.874 44.4314 329.45 43.9514C330.026 43.5354 330.346 43.3114 330.41 43.2794H331.61V52.3994H329.69C329.274 50.8634 328.65 49.4714 327.818 48.2234C327.05 47.0074 326.09 45.9994 324.938 45.1994C323.818 44.3994 322.522 43.9994 321.05 43.9994C319.802 43.9994 318.73 44.4954 317.834 45.4874C316.938 46.4794 316.49 47.7434 316.49 49.2794C316.49 50.4634 316.826 51.5354 317.498 52.4954C318.202 53.4234 319.05 54.2394 320.042 54.9434C321.066 55.6474 322.442 56.4954 324.17 57.4874C326.186 58.6394 327.818 59.6634 329.066 60.5594C330.314 61.4554 331.37 62.5754 332.234 63.9194C333.098 65.2314 333.53 66.7514 333.53 68.4794C333.53 70.2074 333.034 71.7914 332.042 73.2314C331.05 74.6394 329.562 75.7594 327.578 76.5914C325.594 77.4234 323.178 77.8394 320.33 77.8394ZM349.239 77.8394C345.143 77.8394 341.959 76.7194 339.687 74.4794C337.415 72.2074 336.279 69.0874 336.279 65.1194C336.279 62.5274 336.775 60.2714 337.767 58.3514C338.759 56.4314 340.135 54.9594 341.895 53.9354C343.687 52.9114 345.735 52.3994 348.039 52.3994C350.343 52.3994 352.359 52.8314 354.087 53.6954C355.847 54.5594 357.191 55.7274 358.119 57.1994C359.079 58.6394 359.559 60.2394 359.559 61.9994C359.559 62.7994 359.479 63.4874 359.319 64.0634L359.079 64.8794C357.703 65.1674 356.215 65.4074 354.615 65.5994C351.255 66.0794 347.863 66.3194 344.439 66.3194C344.439 70.0314 344.951 72.6874 345.975 74.2874C346.999 75.8554 348.407 76.6394 350.199 76.6394C351.447 76.6394 352.599 76.3514 353.655 75.7754C354.743 75.1674 355.591 74.3834 356.199 73.4234C356.839 72.4314 357.159 71.4234 357.159 70.3994H358.359C358.359 71.6794 357.975 72.8954 357.207 74.0474C356.439 75.1994 355.367 76.1274 353.991 76.8314C352.615 77.5034 351.031 77.8394 349.239 77.8394ZM344.439 65.1194C346.487 65.1194 348.151 65.0394 349.431 64.8794C349.975 64.8474 350.551 64.7674 351.159 64.6394C351.191 64.4794 351.271 64.1274 351.399 63.5834C351.559 62.7834 351.639 61.9354 351.639 61.0394C351.639 58.3834 351.287 56.4474 350.583 55.2314C349.879 53.9834 349.031 53.3594 348.039 53.3594C345.639 53.3594 344.439 57.2794 344.439 65.1194ZM374.3 77.8394C372.508 77.8394 370.892 77.4714 369.452 76.7354C368.044 75.9674 366.94 74.9754 366.14 73.7594C365.34 72.5434 364.94 71.2634 364.94 69.9194V54.5594L362.06 53.8394V53.1194H368.3C371.18 53.1194 372.62 54.5594 372.62 57.4394V69.9194C372.62 71.9354 372.972 73.4874 373.676 74.5754C374.412 75.6314 375.26 76.1594 376.22 76.1594C377.404 76.1594 378.476 75.5194 379.436 74.2394C379.788 73.7594 380.156 73.1194 380.54 72.3194V54.5594L377.66 53.8394V53.1194H391.1V53.8394L388.22 54.5594V77.3594H387.74C385.404 77.3594 383.628 76.7194 382.412 75.4394C381.868 74.8634 381.484 74.2234 381.26 73.5194C380.812 74.3194 380.284 75.0394 379.676 75.6794C378.236 77.1194 376.444 77.8394 374.3 77.8394ZM394.601 48.3194C394.601 46.6554 395.033 45.3274 395.897 44.3354C396.793 43.3114 397.881 42.7994 399.161 42.7994C400.441 42.7994 401.513 43.3114 402.377 44.3354C403.273 45.3274 403.721 46.6554 403.721 48.3194L399.881 66.7994H398.441L394.601 48.3194ZM399.161 77.5994C398.201 77.5994 397.353 77.2314 396.617 76.4954C395.913 75.7274 395.561 74.8154 395.561 73.7594C395.561 72.7034 395.913 71.8074 396.617 71.0714C397.353 70.3034 398.201 69.9194 399.161 69.9194C400.121 69.9194 400.953 70.3034 401.657 71.0714C402.393 71.8074 402.761 72.7034 402.761 73.7594C402.761 74.8154 402.393 75.7274 401.657 76.4954C400.953 77.2314 400.121 77.5994 399.161 77.5994Z" fill="#6C0B12"/>
</svg>
